<?xml version="1.0" standalone="no"?>
<!DOCTYPE svg PUBLIC "-//W3C//DTD SVG 20010904//EN"
 "http://www.w3.org/TR/2001/REC-SVG-20010904/DTD/svg10.dtd">
<svg version="1.0" xmlns="http://www.w3.org/2000/svg"
 width="512.000000pt" height="512.000000pt" viewBox="0 0 512.000000 512.000000"
 preserveAspectRatio="xMidYMid meet">
<metadata>
Created by potrace 1.14, written by Peter Selinger 2001-2017
</metadata>
<g transform="translate(0.000000,512.000000) scale(0.100000,-0.100000)"
fill="#000000" stroke="none">
<path d="M879 3581 c0 -9 -1 -76 -2 -150 l-2 -135 -347 0 c-225 -1 -348 -5
-349 -11 0 -5 -1 -136 -2 -290 l-2 -280 -87 1 -88 2 0 -159 0 -159 89 0 88 0
-1 -285 c-1 -182 3 -286 9 -288 6 -1 164 -2 351 -2 l342 0 -2 -151 -1 -150
395 0 395 1 0 360 0 360 893 0 892 0 0 -50 c1 -27 1 -190 1 -360 l1 -311 394
-2 394 -3 0 154 0 153 350 -1 350 -2 0 289 0 288 38 1 c20 0 61 0 90 -1 l53
-1 -3 158 -3 158 -70 2 c-38 0 -78 2 -87 2 -16 1 -18 24 -20 289 l-3 287 -347
-1 -348 0 0 153 0 154 -392 -3 -393 -3 -2 -320 c-1 -176 -2 -337 -3 -357 l0
-37 -890 0 c-834 0 -890 1 -891 17 -1 9 -2 170 -3 357 l-1 340 -392 1 c-350 0
-393 -1 -394 -15z"/>
</g>
</svg>
